<svg xmlns="http://www.w3.org/2000/svg" viewBox="0 0 42.5197 42.5197"><path d="M21.26,24.7425A3.4827,3.4827,0,1,1,24.7427,21.26,3.4866,3.4866,0,0,1,21.26,24.7425Zm0-5.5484A2.0657,2.0657,0,1,0,23.3257,21.26,2.0683,2.0683,0,0,0,21.26,19.1941Z" style="fill:#bfbebd"/><path d="M41.2569,21.26a3.4761,3.4761,0,0,0-2.41-3.2962,17.9317,17.9317,0,1,0,0,6.592A3.4754,3.4754,0,0,0,41.2569,21.26ZM21.26,36.3567a15.0969,15.0969,0,1,1,14.7635-18.09,3.4525,3.4525,0,0,0,0,5.9863A15.0951,15.0951,0,0,1,21.26,36.3567ZM37.774,23.3255A2.0657,2.0657,0,1,1,39.84,21.26,2.068,2.068,0,0,1,37.774,23.3255Z" style="fill:#bfbebd"/><path d="M34.2916,21.26a3.4718,3.4718,0,0,1,1.7317-2.9933,15.0966,15.0966,0,1,0,0,5.9863A3.4708,3.4708,0,0,1,34.2916,21.26ZM21.26,24.7425A3.4827,3.4827,0,1,1,24.7427,21.26,3.4866,3.4866,0,0,1,21.26,24.7425Z" style="fill:#bfbebd;opacity:0.5"/></svg>