<svg xmlns="http://www.w3.org/2000/svg" viewBox="0 0 42.5197 42.5197"><path d="M37.5034,11.8533A3.4865,3.4865,0,0,0,34.021,8.37a3.4507,3.4507,0,0,0-2.2484.8453L23.0407,6.0506a3.4746,3.4746,0,1,0-4.8352,3.45l.0922,7.5119a3.4456,3.4456,0,0,0-1.5063,4.9608l-6.6947,9.7387a3.4333,3.4333,0,0,0-.4654-.0471,3.4827,3.4827,0,1,0,3.32,4.4787l15.3668-1.9A3.4769,3.4769,0,1,0,33.14,29.4579l2.14-14.3666A3.4806,3.4806,0,0,0,37.5034,11.8533ZM27.9079,31.438,12.59,33.3322c-.0269-.0436-.0456-.0922-.0743-.1345l6.6084-9.6132A3.4779,3.4779,0,0,0,21.1319,16.97L21.04,9.458a3.4909,3.4909,0,0,0,1.0446-.7391l8.4606,3.067c0,.023-.0068.0443-.0068.0674a3.4728,3.4728,0,0,0,1.8987,3.0835L30.3384,29.0262A3.4741,3.4741,0,0,0,27.9079,31.438Zm8.1785-19.5847A2.0657,2.0657,0,1,1,34.021,9.7874,2.068,2.068,0,0,1,36.0864,11.8533ZM17.5181,6.305A2.0657,2.0657,0,1,1,19.5835,8.37,2.0681,2.0681,0,0,1,17.5181,6.305ZM19.7539,18.1a2.0657,2.0657,0,1,1-2.0659,2.0659A2.0681,2.0681,0,0,1,19.7539,18.1ZM9.6313,37.2132a2.0657,2.0657,0,1,1,2.066-2.0655A2.0681,2.0681,0,0,1,9.6313,37.2132Zm21.6153-2.774a2.0657,2.0657,0,1,1,2.0659-2.0659A2.0681,2.0681,0,0,1,31.2466,34.4392Z" style="fill:#bfbebd"/><g style="opacity:0.5"><path d="M19.7539,23.6482a3.4741,3.4741,0,0,1-.63-.0637l-6.6084,9.6132c.0287.0423.0474.0909.0743.1345L27.9079,31.438a3.4741,3.4741,0,0,1,2.43-2.4118l2.0984-14.0894a3.4728,3.4728,0,0,1-1.8987-3.0835c0-.0231.0064-.0444.0068-.0674l-8.4606-3.067A3.4909,3.4909,0,0,1,21.04,9.458l.0922,7.5119a3.481,3.481,0,0,1-1.378,6.6783Z" style="fill:#bfbebd"/></g></svg>