<svg xmlns="http://www.w3.org/2000/svg" viewBox="0 0 42.5197 42.5197"><path d="M37.5789,27.5217V14.1283a3.4785,3.4785,0,1,0-4.5918-4.5919H8.9482a3.4785,3.4785,0,1,0-4.5915,4.5919V27.7246a3.4749,3.4749,0,1,0,4.9651,4.389H32.9871a3.4785,3.4785,0,1,0,4.5918-4.5919ZM32.987,29.2786H9.3218a3.4838,3.4838,0,0,0-2.13-1.8878V14.1283a3.4962,3.4962,0,0,0,1.7566-1.7569H32.987a3.497,3.497,0,0,0,1.757,1.7569V27.5216A3.4968,3.4968,0,0,0,32.987,29.2786Zm3.1744-20.39a2.0657,2.0657,0,1,1-2.0659,2.0654A2.068,2.068,0,0,1,36.1614,8.8885ZM3.7083,10.9539A2.0657,2.0657,0,1,1,5.7742,13.02,2.0681,2.0681,0,0,1,3.7083,10.9539Zm2.44,21.8076a2.0657,2.0657,0,1,1,2.0654-2.0654A2.0682,2.0682,0,0,1,6.1478,32.7615Zm30.0136,0a2.0657,2.0657,0,1,1,2.0655-2.0654A2.0682,2.0682,0,0,1,36.1614,32.7615Z" style="fill:#bfbebd"/><path d="M32.987,12.3714H8.9483a3.4962,3.4962,0,0,1-1.7566,1.7569V27.3908a3.4838,3.4838,0,0,1,2.13,1.8878H32.987a3.4968,3.4968,0,0,1,1.757-1.757V14.1283A3.497,3.497,0,0,1,32.987,12.3714Z" style="fill:#bfbebd;opacity:0.5"/></svg>