<svg xmlns="http://www.w3.org/2000/svg" viewBox="0 0 42.5197 42.5197"><path d="M38.614,21.15c0-4.2451-5.2456-7.5708-11.9414-7.5708h-10.81c-6.6958,0-11.9409,3.3257-11.9409,7.5708a6.09,6.09,0,0,0,2.51,4.6855l.012.0122.0146.0105a11.4737,11.4737,0,0,0,2.9207,1.6773c.0577.0232.1172.0442.1755.0669q.45.1745.9245.3242c.0916.0288.184.056.2767.0833q.4363.1281.892.2337c.11.0258.22.0519.332.0756.2962.0627.5987.1162.9055.1645.1187.0188.2356.04.3555.0567.3154.0432.6374.0752.9623.1027.1125.01.2227.024.336.0317.4344.0291.8751.0465,1.3237.0465H26.6726c.4486,0,.8893-.0174,1.3238-.0465.1132-.0077.2233-.0221.3357-.0317.325-.0275.6472-.0595.9627-.1027.12-.0165.2364-.0379.3549-.0566.307-.0484.61-.1019.9062-.1646.1116-.0237.2212-.05.3314-.0755q.4563-.1062.893-.234c.0923-.0271.1842-.0542.2754-.0829q.4773-.15.9271-.3252c.0573-.0222.1159-.0428.1726-.0657a11.4734,11.4734,0,0,0,2.9237-1.6791l.0125-.0091.01-.0105A6.0911,6.0911,0,0,0,38.614,21.15ZM15.8621,16.4143H26.6726c5.3667,0,9.1065,2.4956,9.1065,4.7359a2.8122,2.8122,0,0,1-.7365,1.7615,16.1043,16.1043,0,0,0-8.37-2.14h-10.81a16.1047,16.1047,0,0,0-8.37,2.14A2.8121,2.8121,0,0,1,6.7561,21.15C6.7561,18.91,10.4959,16.4143,15.8621,16.4143Zm0,9.4722c-.4921,0-.9771-.0272-1.4553-.07-.0688-.006-.1382-.0113-.2063-.0181-.4728-.0482-.937-.1149-1.3872-.2027-.036-.007-.0707-.0152-.1064-.0224a12.7114,12.7114,0,0,1-2.51-.7762c-.042-.0183-.0858-.0355-.1271-.0541a14.4642,14.4642,0,0,1,5.7924-1.1365H26.6726a14.4631,14.4631,0,0,1,5.7926,1.1366c-.04.0181-.0831.035-.1241.0528a12.7088,12.7088,0,0,1-2.5146.7777c-.035.0071-.069.0151-.1042.022-.4505.0879-.9152.1546-1.3883.2029-.0679.0068-.1371.012-.2057.018-.4783.0426-.9635.07-1.4557.07Z" style="fill:#bfbebd"/><path d="M35.7791,21.15c0-2.24-3.74-4.7359-9.1065-4.7359h-10.81c-5.3662,0-9.106,2.4956-9.106,4.7359a2.8121,2.8121,0,0,0,.7364,1.7613,16.1047,16.1047,0,0,1,8.37-2.14H26.6726a16.1043,16.1043,0,0,1,8.37,2.14A2.8122,2.8122,0,0,0,35.7791,21.15Z" style="fill:#bfbebd;opacity:0.5"/></svg>