<svg xmlns="http://www.w3.org/2000/svg" viewBox="0 0 42.5197 42.5197"><path d="M24.4353,29.3778c.06-.0082.1185-.0193.1783-.028q.7-.1,1.3712-.24c.0311-.0066.0615-.014.0925-.0207q.7252-.1551,1.4108-.3554l.0051-.0015c4.9257-1.4342,8.2706-4.5283,8.2706-8.2087,0-5.0859-6.3711-9.07-14.5039-9.07s-14.5044,3.9839-14.5044,9.07c0,3.681,3.3461,6.7757,8.2734,8.21l.0008,0q.6882.2,1.4149.3564c.03.0065.0592.0138.0891.02q.6721.1407,1.3739.2408c.0592.0086.117.02.1764.0277.4373.0589.8833.1035,1.3355.138.0831.0064.1642.0174.2477.023.5227.0342,1.0531.0542,1.5927.0542s1.07-.02,1.5924-.0542c.0839-.0056.1654-.0167.249-.0231C23.553,29.4812,23.9985,29.4367,24.4353,29.3778Zm.8379-3.023c-.61.1251-1.2395.2224-1.8811.29-.0553.0058-.112.0089-.1676.0141-.6457.0622-1.3016.1-1.9646.1s-1.3192-.0373-1.965-.1c-.0553-.0052-.1119-.0084-.1671-.0141-.6422-.0672-1.2717-.1646-1.8825-.29-.0332-.0067-.0665-.013-.1-.02A15.859,15.859,0,0,1,13.628,25.178a18.1736,18.1736,0,0,1,7.6319-1.58,18.1728,18.1728,0,0,1,7.6318,1.58,15.8544,15.8544,0,0,1-3.5168,1.1565C25.3412,26.3416,25.3071,26.3479,25.2732,26.3548ZM21.26,14.2884c6.3252,0,11.6689,2.8549,11.6689,6.2348a4.1153,4.1153,0,0,1-1.3811,2.8879A19.7061,19.7061,0,0,0,21.26,20.763a19.7046,19.7046,0,0,0-10.2881,2.6483A4.1154,4.1154,0,0,1,9.59,20.5232C9.59,17.1433,14.9342,14.2884,21.26,14.2884Z" style="fill:#bfbebd"/><path d="M21.26,14.2884c-6.3257,0-11.6695,2.8549-11.6695,6.2348a4.1154,4.1154,0,0,0,1.3814,2.8881A19.7046,19.7046,0,0,1,21.26,20.763a19.7061,19.7061,0,0,1,10.2878,2.6481,4.1153,4.1153,0,0,0,1.3811-2.8879C32.9288,17.1433,27.5851,14.2884,21.26,14.2884Z" style="fill:#bfbebd;opacity:0.5"/></svg>